<?xml version="1.0" encoding="utf-8" ?>
<svg baseProfile="full" height="520px" version="1.1" width="524px" xmlns="http://www.w3.org/2000/svg" xmlns:ev="http://www.w3.org/2001/xml-events" xmlns:xlink="http://www.w3.org/1999/xlink"><defs /><polygon fill="black" points="66.0,3.0 65.0,4.0 60.0,4.0 59.0,5.0 56.0,5.0 55.0,6.0 53.0,6.0 52.0,7.0 50.0,7.0 49.0,8.0 47.0,8.0 46.0,9.0 45.0,9.0 44.0,10.0 43.0,10.0 42.0,11.0 41.0,11.0 40.0,12.0 39.0,12.0 37.0,14.0 36.0,14.0 35.0,15.0 34.0,15.0 31.0,18.0 30.0,18.0 18.0,30.0 18.0,31.0 16.0,33.0 16.0,34.0 14.0,36.0 14.0,37.0 12.0,39.0 12.0,40.0 11.0,41.0 11.0,42.0 10.0,43.0 10.0,44.0 9.0,45.0 9.0,47.0 8.0,48.0 8.0,49.0 7.0,50.0 7.0,52.0 6.0,53.0 6.0,56.0 5.0,57.0 5.0,61.0 4.0,62.0 4.0,68.0 3.0,69.0 4.0,70.0 4.0,460.0 5.0,461.0 5.0,464.0 6.0,465.0 6.0,468.0 7.0,469.0 7.0,471.0 8.0,472.0 8.0,474.0 9.0,475.0 9.0,476.0 10.0,477.0 10.0,478.0 11.0,479.0 11.0,480.0 12.0,481.0 12.0,482.0 13.0,483.0 13.0,484.0 15.0,486.0 15.0,487.0 17.0,489.0 17.0,490.0 21.0,494.0 21.0,495.0 22.0,495.0 23.0,496.0 23.0,497.0 25.0,499.0 26.0,499.0 32.0,505.0 33.0,505.0 35.0,507.0 36.0,507.0 38.0,509.0 39.0,509.0 40.0,510.0 41.0,510.0 42.0,511.0 43.0,511.0 44.0,512.0 45.0,512.0 46.0,513.0 48.0,513.0 49.0,514.0 50.0,514.0 51.0,515.0 53.0,515.0 54.0,516.0 57.0,516.0 58.0,517.0 61.0,517.0 62.0,518.0 70.0,518.0 71.0,519.0 452.0,519.0 453.0,518.0 461.0,518.0 462.0,517.0 465.0,517.0 466.0,516.0 469.0,516.0 470.0,515.0 473.0,515.0 474.0,514.0 475.0,514.0 476.0,513.0 478.0,513.0 479.0,512.0 480.0,512.0 481.0,511.0 482.0,511.0 484.0,509.0 485.0,509.0 486.0,508.0 487.0,508.0 488.0,507.0 489.0,507.0 492.0,504.0 493.0,504.0 497.0,500.0 498.0,500.0 499.0,499.0 499.0,498.0 500.0,497.0 501.0,497.0 501.0,496.0 502.0,495.0 503.0,495.0 503.0,494.0 507.0,490.0 507.0,489.0 509.0,487.0 509.0,486.0 511.0,484.0 511.0,483.0 512.0,482.0 512.0,481.0 513.0,480.0 513.0,479.0 514.0,478.0 514.0,477.0 515.0,476.0 515.0,475.0 516.0,474.0 516.0,472.0 517.0,471.0 517.0,469.0 518.0,468.0 518.0,466.0 519.0,465.0 519.0,461.0 520.0,460.0 520.0,454.0 521.0,453.0 521.0,69.0 520.0,68.0 520.0,60.0 519.0,59.0 519.0,57.0 518.0,56.0 518.0,53.0 517.0,52.0 517.0,50.0 516.0,49.0 516.0,47.0 515.0,46.0 515.0,45.0 514.0,44.0 514.0,43.0 513.0,42.0 513.0,41.0 512.0,40.0 512.0,39.0 510.0,37.0 510.0,36.0 508.0,34.0 508.0,33.0 505.0,30.0 505.0,29.0 495.0,19.0 494.0,19.0 490.0,15.0 489.0,15.0 488.0,14.0 487.0,14.0 486.0,13.0 485.0,13.0 483.0,11.0 482.0,11.0 481.0,10.0 480.0,10.0 479.0,9.0 478.0,9.0 477.0,8.0 475.0,8.0 474.0,7.0 472.0,7.0 471.0,6.0 468.0,6.0 467.0,5.0 465.0,5.0 464.0,4.0 459.0,4.0 458.0,3.0" /><polygon fill="black" points="0.0,0.0 523.0,0.0" /></svg>
